<?xml version="1.0" standalone="no"?>
<!DOCTYPE svg PUBLIC "-//W3C//DTD SVG 1.1//EN" "http://www.w3.org/Graphics/SVG/1.1/DTD/svg11.dtd" >
<!--
2013-9-30: Created.
-->
<svg>
<metadata>
Created by iconfont
</metadata>
<defs>

<font id="iconfont" horiz-adv-x="1024" >
  <font-face
    font-family="iconfont"
    font-weight="500"
    font-stretch="normal"
    units-per-em="1024"
    ascent="896"
    descent="-128"
  />
    <missing-glyph />
    
    <glyph glyph-name="liwu" unicode="&#58970;" d="M54.893568-30.789888M633.133056 539.655936c27.025408 60.476416 68.26496 122.789888 107.665408 122.789888 3.208192 0 7.41376-0.175104 11.459584-1.373184 16.11776-4.763648 35.743744-15.054848 32.526336-38.946816C780.670976 591.483648 734.388224 545.607424 633.133056 539.655936zM561.649664 318.80576l313.857024 0 0-465.514496-313.857024 0 0 465.514496ZM252.37504 620.29696c-2.543616 22.87616 15.577088 34.818048 32.531456 38.483968 3.66592 1.379328 7.330816 1.82784 11.455488 1.82784 38.941696 0 79.720448-63.22176 108.12928-123.24864C302.7712 543.320832 255.788032 589.565696 252.37504 620.29696zM148.818944 318.80576l313.398272 0 0-465.514496-313.398272 0 0 465.514496ZM952.484864 353.172224 952.484864 493.373184l-167.70048 0c53.147648 31.161344 82.0224 74.227712 87.975936 116.840448 8.708096 62.313472-29.708288 115.730432-95.76448 135.161856-11.838464 3.479552-23.820288 5.044224-36.1984 5.044224-114.538496 0-181.438464-151.666688-205.270016-215.809024l-34.354176 0c-26.121216 65.063936-90.264576 213.971968-204.813312 213.971968-12.376064 0-24.788992-2.118656-36.197376-5.492736-66.02752-19.540992-104.23808-72.824832-95.762432-135.168 5.727232-42.116096 34.827264-83.387392 84.765696-114.547712L70.934528 493.374208l0-140.201984L952.484864 353.172224zM968.984576-30.789888"  horiz-adv-x="1024" />

    
    <glyph glyph-name="icon2" unicode="&#58905;" d="M511.996418 788.479307c-269.76705 0-488.454748-218.688721-488.454748-488.454748 0-269.768073 218.688721-488.453724 488.454748-488.453724 269.766027 0 488.454748 218.685651 488.454748 488.453724C1000.451166 569.790586 781.762445 788.479307 511.996418 788.479307zM769.334391 96.844044l-54.156434-54.156434L511.996418 245.870172 308.813856 42.68761l-54.155411 54.156434L457.841008 300.024559 254.658446 503.207122l54.155411 54.155411L511.996418 354.17997l203.182562 203.182562 54.156434-54.155411L566.151829 300.024559 769.334391 96.844044z"  horiz-adv-x="1024" />

    
    <glyph glyph-name="fenxiang" unicode="&#58899;" d="M146.663314 260.876822c0-98.298793 79.687924-177.979554 177.972391-177.979554 69.648266 0 129.921002 39.997969 159.170163 98.277304L655.223982 150.981922l-0.061398-4.516874c0-70.220295 56.919361-127.129422 127.125329-127.129422 70.206992 0 127.126352 56.908104 127.126352 127.129422 0 70.217225-56.919361 127.122259-127.126352 127.122259-50.91153 0-94.807273-29.883611-115.118877-73.093738l-167.226652 29.435403c1.76418 10.038634 2.671852 20.395516 2.671852 30.947849 0 46.465265-17.820877 88.76465-46.964638 120.445186l154.6318 154.650219c13.953803-5.262864 29.077246-8.129144 44.880163-8.129144 70.205968 0 127.125329 56.905034 127.125329 127.122259s-56.919361 127.125329-127.125329 127.125329-127.125329-56.908104-127.125329-127.125329c0-35.657104 14.686491-67.86976 38.324864-90.962711L415.972946 413.613458c-26.708292 16.012695-57.929364 25.239847-91.337241 25.239847C226.351238 438.849212 146.663314 359.172545 146.663314 260.876822L146.663314 260.876822 146.663314 260.876822z"  horiz-adv-x="1024" />

    
    <glyph glyph-name="dingwei" unicode="&#58887;" d="M510.976182 833.610044c-168.849616 0-305.734216-136.885624-305.734216-305.73524 0-111.173009 59.344596-208.507848 148.090826-262.003226l121.640408-295.513434 0.034792 0c0-19.847024 16.104793-35.967166 35.96819-35.967166s35.969213 16.121166 35.969213 35.967166l0.034792 0 121.6752 295.513434c88.727811 53.531194 148.056034 150.830217 148.056034 262.003226C816.711422 696.724421 679.825798 833.610044 510.976182 833.610044zM510.976182 383.998977c-79.45461 0-143.874805 64.421218-143.874805 143.874805 0 79.455633 64.420195 143.875828 143.874805 143.875828 79.455633 0 143.875828-64.420195 143.875828-143.875828C654.850987 448.420195 590.430792 383.998977 510.976182 383.998977z"  horiz-adv-x="1024" />

    
    <glyph glyph-name="xiazai" unicode="&#58912;" d="M662.62186 334.731594c68.523788 46.884193 113.609197 126.232559 113.609197 216.401253 0 146.068057-119.020424 265.088481-265.088481 265.088481-146.072307 0-263.289697-119.020424-263.289697-263.284384 0-90.169757 45.08541-169.51706 113.61026-216.401253C206.375662 275.221914 98.177692 125.545664 98.177692-49.37731l0 0 73.936077 0 0 0c0 173.118878 131.641661 317.383901 299.353562 337.221524 1.804096 0 46.885256 3.60713 84.755343 0l3.60713 0 0 0c164.104771-23.441566 290.33733-164.101583 290.33733-335.417427l0 0 75.739111 0 0 0C924.101085 125.545664 815.903115 275.221914 662.62186 334.731594L662.62186 334.731594zM511.142576 354.568155c-110.006317 0-198.367727 88.363535-198.367727 198.36879 0 110.002067 88.362473 198.363477 198.367727 198.363477 110.001004 0 198.363477-88.36141 198.363477-198.363477C709.506053 442.930627 621.14358 354.568155 511.142576 354.568155L511.142576 354.568155zM511.142576 354.568155"  horiz-adv-x="1024" />

    
    <glyph glyph-name="zhanghuyue" unicode="&#58894;" d="M511.979-121.064c-313.562 0-445.086 112.16-445.086 342.657 0 190.952 149.141 390.228 329.94 453.095h230.295c180.805-62.867 329.94-262.142 329.94-453.095-0.001-230.496-131.525-342.657-445.090-342.657zM635.327 257.694v0.077c20.809 0.109 37.641 17.015 37.641 37.841 0 20.846-16.829 37.733-37.641 37.864v0.090h-76.342c0.149 0.851-0.101 1.609-0.027 2.46l89.472 91.462c14.595 16.442 7.169 30.038-7.582 44.945-14.843 14.983-39.102 18.126-51.095 5.068l-76.934-82.011-83.101 83.103c-10.516 10.506-30.973 7.083-45.694-7.639-14.734-14.742-18.145-35.216-7.639-45.723l84.991-84.97c-1.59-2.033-2.62-4.292-3.236-6.697h-69.073v-0.070c-0.064 0-0.132 0-0.194 0-20.92 0-37.881-16.944-37.881-37.881 0-20.898 16.961-37.878 37.881-37.878 0.063 0 0.13 0.038 0.194 0.038v-0.077h75.712v-37.731h-75.712v-0.11c-0.064 0-0.132 0-0.194 0-20.92 0-37.881-16.944-37.881-37.879 0-20.9 16.961-37.881 37.881-37.881 0.063 0 0.13 0.038 0.194 0.038v-0.038h75.712v-38.139h0.785c-0.593-2.958-0.933-6.048-0.933-9.21 0-26.154 21.196-47.35 47.348-47.35 26.156 0 47.35 21.197 47.35 47.35 0 3.16-0.344 6.252-0.935 9.21h0.443v38.139l76.492 0.038c20.809 0.131 37.641 17.017 37.641 37.844 0 20.843-16.832 37.731-37.641 37.86v0.131h-76.492v37.73h76.492zM691.905 825.93l-7.96-9.95c-0.177-0.185-0.298-0.406-0.474-0.591l-67.324-84.156h-227.277l-67.197 84.011c-0.499 0.482-0.823 1.071-1.285 1.59l-7.278 9.1 1.284 2.571c-0.619 2.332-1.442 4.606-1.442 7.121 0 12.059 7.584 22.249 18.2 26.393l0.898 1.796c0 0 93.101 18.625 170.457 18.939 80.958 0.332 170.459-18.939 170.459-18.939l0.918-1.813c10.55-4.181 18.069-14.354 18.069-26.374 0-2.48-0.815-4.683-1.405-6.954l1.356-2.74z"  horiz-adv-x="1024" />

    
    <glyph glyph-name="shaixuan" unicode="&#59062;" d="M885.293894 730.023384c-13.712002 23.84251-38.27081 38.066154-65.797142 38.066154L191.302888 768.089537c-27.526332 0-52.08514-14.223643-65.797142-38.066154-13.712002-23.84251-13.507345-52.289797 0.306985-76.029979l0.920955-1.637254 218.061757-287.952034 0-245.281103c0-17.498151 14.223643-31.721795 31.721795-31.721795s31.721795 14.223643 31.721795 31.721795L408.239033 372.795043c0.511642 7.367643-1.534926 15.04227-6.344359 21.386629L180.046767 687.250125c-2.251224 4.911762-0.61397 9.004897 0.61397 11.153792 1.330269 2.353553 4.502448 6.242031 10.744479 6.242031L819.496752 704.645948c6.242031 0 9.41421-3.888478 10.744479-6.242031 1.22794-2.148896 2.865194-6.344359 0.61397-11.256121l-223.48516-294.705706c-0.102328-0.102328-0.204657-0.306985-0.306985-0.409313-4.093135-5.321075-6.446687-11.972419-6.446687-19.237734l0-388.438493c0-17.498151 14.223643-31.721795 31.721795-31.721795s31.721795 14.223643 31.721795 31.721795L664.059958 362.255221l220.005996 290.100929 0.920955 1.637254C898.801239 677.733586 899.005896 706.078545 885.293894 730.023384z"  horiz-adv-x="1024" />

    
    <glyph glyph-name="qiangdanicon" unicode="&#59083;" d="M831.776157 306.076946c-4.604777 43.796542-47.992006 80.430099-96.08634 80.430099-10.64215 0-23.023883-1.739582-32.540422-4.809433-6.856001 41.44299-47.582692 73.164785-93.118817 73.164785-9.823524 0-16.781853-1.432597-25.582093-4.195463l0 89.946637c0 58.327171-50.345558 105.807535-112.254222 105.807535-61.908664 0-111.230938-47.480364-111.230938-105.807535l0-163.21375c-8.80024 2.660538-12.074748 4.195463-21.898271 4.195463-50.447886 0-91.481563-38.884781-91.481563-86.67213l0-86.876786c0-36.4289 7.367643-71.936844 22.0006-105.295893 14.018987-32.131108 29.777556-61.090037 55.25732-85.853503 52.392126-50.959528 121.873089-79.09983 195.447187-79.09983l31.619466 0c73.574098 0 143.976017 28.037973 196.470471 79.09983 25.582093 24.865794 46.661737 53.722394 60.680723 85.853503C823.692215 136.109523 831.776157 171.617468 831.776157 208.046368 831.776157 208.046368 831.776157 302.70011 831.776157 306.076946zM703.149395 62.330768c-40.522035-39.396423-94.244429-61.090037-151.241331-61.090037l-31.619466 0c-56.996902 0-110.719296 21.693614-151.241331 61.090037-40.317378 39.191766-58.122514 90.969921-58.122514 145.715599l0 57.201559c0 0 0 0.102328 0 0.102328l0 29.572899c0 12.58639 12.791046 23.22854 28.037973 23.22854 15.144599 0 21.693614-10.539822 21.898271-23.023883l0-40.419706c0-17.498151 14.223643-31.721795 31.721795-31.721795s31.721795 14.223643 31.721795 31.721795l0 40.215049c0 0.204657 0 245.690417 0 245.690417 0 10.744479 4.707105 20.977316 13.405016 28.958929 9.41421 8.595583 20.874988 13.405016 34.382332 13.405016s25.991406-4.707105 35.405616-13.405016c8.595583-7.981613 13.405016-18.21445 13.405016-28.958929l0-220.926951c0-17.498151 14.223643-31.721795 31.721795-31.721795s31.721795 14.223643 31.721795 31.721795l0 48.503647c0 12.58639 13.098031 23.22854 28.344959 23.22854s28.037973-10.64215 28.037973-23.22854l0-89.025682c0-17.498151 14.223643-31.721795 31.721795-31.721795s31.721795 14.223643 31.721795 31.721795l0 20.261017c0.920955 12.074748 16.065554 23.637854 31.41481 23.637854 15.963226 0 31.926451-14.632957 31.619466-27.219346 0 0-0.204657-93.221145 0.204657-95.267713C765.569701 148.593584 741.624863 99.680624 703.149395 62.330768zM666.413511 526.901569c-17.498151 0-31.721795 14.223643-31.721795 31.721795 0 80.737084-80.020785 146.431898-161.883482 146.431898-89.332667 0-161.883482-65.694814-161.883482-146.431898 0-17.498151-14.223643-31.721795-31.721795-31.721795s-31.721795 14.223643-31.721795 31.721795c0 56.587589 23.740182 109.593684 66.922754 149.297092 42.466274 39.089437 98.746877 60.578395 158.404317 60.578395s115.938043-21.488958 158.404317-60.578395c43.182572-39.703408 66.922754-92.709503 66.922754-149.297092C698.135305 541.125212 683.911662 526.901569 666.413511 526.901569z"  horiz-adv-x="1024" />

    
    <glyph glyph-name="z-alipay" unicode="&#59084;" d="M807.894 815.551h-587.297c-76.004 0-138.188-62.185-138.188-138.188v-585.569c0-76.002 62.184-138.186 138.188-138.186h587.297c76.002 0 138.184 62.184 138.184 138.186v5.181c0 0-224.554 93.278-338.56 148.555-76.003-93.278-174.46-150.28-276.374-150.28-171.007 0-229.736 150.28-148.552 248.735 17.273 20.73 48.366 41.459 95.006 53.548 74.274 19 191.736-10.361 300.559-46.636 19 36.275 36.27 76.002 48.363 119.188l-338.56-0v34.545h174.463v58.73l-210.735 0v34.548l210.736-0v88.095c0 0 0 15.544 15.543 15.544h84.641v-101.913l209.008 0v-34.546h-209.008v-60.46h171.006c-17.274-65.638-41.453-127.824-72.545-181.369 51.819-18.999 98.455-36.275 133.005-48.368 124.366-41.454 152.003-44.91 152.003-44.91v447.381c0 76.003-62.181 138.188-138.184 138.188zM293.143 347.441c-22.452-1.73-62.185-12.091-84.638-31.091-67.368-58.736-27.639-164.1 107.095-164.1 77.731 0 155.461 50.096 219.372 129.551-88.096 43.185-162.369 74.278-241.83 65.641z"  horiz-adv-x="1024" />

    
    <glyph glyph-name="single" unicode="&#59069;" d="M837.139 818.958h-59.605c-16.486 0-35.508-10.144-35.508-26.631 0-16.486 19.022-32.973 35.508-32.973h59.605c35.507 0 59.604-24.096 59.604-59.604v-686.069c0-35.508-24.097-59.604-59.604-59.604h-641.687c-35.508 0-74.82 24.096-74.82 59.604v686.068c0 35.508 24.096 59.604 59.604 59.604h74.82c16.485 0 22.827 16.487 22.827 32.973 0 16.487-6.341 26.631-22.827 26.631h-74.819c-83.7 0.001-119.209-51.994-119.209-120.475v-678.462c0-73.552 44.385-125.545 125.546-125.545h644.221c81.166 0 125.551 43.118 125.551 125.545v678.462c0.001 68.481-41.849 120.476-119.206 120.476v0zM255.056 550.107c0-16.486 13.952-30.433 30.433-30.433h447.66c16.486 0 30.438 13.947 30.438 30.433 0 16.487-13.952 30.438-30.438 30.438h-447.66c-16.481 0-30.433-13.951-30.433-30.438v0zM731.882 415.683h-446.393c-16.481 0-30.433-13.951-30.433-30.438 0-16.482 13.952-30.433 30.433-30.433h447.66c16.486 0 30.438 13.951 30.438 30.433-1.267 17.755-15.219 30.438-31.706 30.438v0zM731.882 236.876h-446.393c-16.481 0-30.433-13.952-30.433-30.439 0-16.485 13.952-30.432 30.433-30.432h447.66c16.486 0 30.438 13.947 30.438 30.432-1.267 17.756-15.219 30.439-31.706 30.439v0zM405.966 744.134h207.979c24.097 0 44.384 24.096 44.384 51.996 0 27.898-20.289 51.995-45.652 51.995h-206.71c-25.363 0-45.652-24.096-45.652-51.995 0-27.9 20.288-51.996 45.652-51.996v0z"  horiz-adv-x="1024" />

    
    <glyph glyph-name="daohang" unicode="&#58944;" d="M894.185422 767.976208 129.814578 450.256006 445.99982 318.255647 571.860343 2.070404Z"  horiz-adv-x="1024" />

    
    <glyph glyph-name="pingjia" unicode="&#58962;" d="M796.2624 426.25536h-174.3616a37.8368 37.8368 0 0 0-34.9696 23.3472 37.85728 37.85728 0 0 0 8.16128 41.30304c22.36416 22.3744 21.67808 79.06816 15.66208 113.00864-21.21216 39.66976-42.624 42.78784-48.7424 42.78784-5.69344-1.92-11.9808-15.01696-14.54592-24.35072-0.51712-115.18976-118.84544-187.63264-123.904-190.67904a37.6576 37.6576 0 0 0-7.64416-3.50208v-258.26816h320.4096c8.12032 0 12.1856 4.0448 12.60544 5.18144-0.07168 2.27328 0.27136 5.22752 0.93696 8.16128l57.97888 239.1552c-1.67424 1.56672-5.4784 3.86048-11.59168 3.86048z m-478.59712 0h47.89248v-256.3584h-47.89248v256.3584z m195.02592 442.9312c-268.47232 0-486.144-217.6512-486.144-486.144 0-268.4928 217.67168-486.15936 486.144-486.15936 268.52352 0 486.144 217.67168 486.144 486.15936s-217.61536 486.144-486.144 486.144z m286.65344-696.32512c-0.98816-29.6448-28.8768-53.47328-63.01184-53.47328H267.1616v357.376H400.3328c16.45056 10.82368 98.62656 69.0688 96.57856 149.3504l-0.0256 1.32096 0.22528 1.28c0.41984 2.25792 10.6496 55.36256 53.37088 67.31776 1.25952 0.3072 5.2736 1.17248 11.53536 1.17248 17.6128 0 62.24896-7.31136 96.18944-75.0848l1.05984-3.0208c0.83456-3.98848 18.0736-87.04-12.41088-142.34624h149.4016c34.75456 0 63.04256-24.71424 63.04256-55.0912l-0.34816-2.9696-59.60704-245.8368z"  horiz-adv-x="1024" />

    
    <glyph glyph-name="35_xiangxiajiantou" unicode="&#58901;" d="M225.408 527.616L496 255.359l270.592 272.257-48.64 49.024L496 353.408 274.176 576.64l-48.768-49.024z m0 0z"  horiz-adv-x="1024" />

    
    <glyph glyph-name="weixin" unicode="&#59322;" d="M236.24 572.231c0-24.005 19.32-43.325 43.325-43.325s43.326 19.32 43.326 43.325c0 24.005-19.321 43.325-43.326 43.325-24.004 0-43.325-19.32-43.325-43.325z m336.064-223.067c0-18.735 15.223-33.958 33.958-33.958s33.958 15.223 33.958 33.958-15.223 33.958-33.958 33.958-33.958-15.223-33.958-33.958zM456.38 572.231c0-24.005 19.32-43.325 43.325-43.325 24.005 0 43.325 19.32 43.325 43.325 0 24.005-19.32 43.325-43.325 43.325-24.005 0-43.325-19.32-43.325-43.325zM858.017 896H165.983C74.648 896 0.293 821.644 0.293 729.724v-690.863c0-91.92 74.355-166.276 165.69-166.276h692.034c91.335 0 165.69 74.356 165.69 166.276V729.724C1023.707 821.06 949.352 896 858.017 896zM384.366 209.82c-38.642 0-69.672 8.197-108.899 15.808L167.154 171.18l31.03 93.09C120.316 318.72 74.063 388.978 74.063 473.872c0 147.54 139.929 264.05 310.303 264.05 152.81 0 286.298-93.09 313.23-217.798a255.341 255.341 0 0 1-29.859 1.757c-147.54 0-264.05-110.07-264.05-245.315 0-22.834 3.513-44.496 9.367-64.988-9.367-1.171-18.735-1.757-28.688-1.757z m457.843-108.313l23.42-77.283-84.895 46.838c-31.03-7.61-62.06-15.808-93.09-15.808-147.541 0-264.051 100.703-264.051 225.41 0 124.12 116.51 225.408 264.05 225.408 139.344 0 263.465-101.288 263.465-225.409-0.585-70.843-46.838-132.903-108.899-179.156zM741.507 349.164c0-18.735 15.223-33.958 33.958-33.958s33.958 15.223 33.958 33.958-15.223 33.958-33.958 33.958c-19.32 0-33.958-15.223-33.958-33.958z"  horiz-adv-x="1024" />

    
    <glyph glyph-name="youhuijuan" unicode="&#59545;" d="M960 494.4V672c0 17.6-14.4 32-32 32H96c-17.6 0-32-14.4-32-32v-178.4c38.4-22.4 64-63.2 64-110.4s-25.6-88.8-64-110.4V96c0-17.6 14.4-32 32-32h832c17.6 0 32 14.4 32 32V272.8c-38.4 22.4-64 63.2-64 110.4s25.6 88.8 64 111.2z m-320-47.2v-64H544v-64h96v-64H544v-96h-64v96H384v64h96v64H384v64h95.2L371.2 554.4l45.6 45.6 96-96L608 599.2l45.6-45.6-106.4-106.4H640z"  horiz-adv-x="1024" />

    
    <glyph glyph-name="-kefu" unicode="&#59563;" d="M336 544h16c0-88 72-160 160-160s160 72 160 160h16v-32h16.8c-10.4-82.4-75.2-148-157.6-160-7.2 8.8-18.4 14.4-30.4 14.4-21.6 0-39.2-17.6-39.2-39.2s17.6-39.2 39.2-39.2c19.2 0 35.2 14.4 38.4 32.8 96 16 170.4 93.6 181.6 191.2H768V640h-53.6C678.4 716 600.8 768 512 768s-166.4-52-202.4-128H256v-128h80v32zM616 309.6c-23.2-32.8-60.8-53.6-104-53.6s-80.8 21.6-104 53.6C280 287.2 128 226.4 128 128v-96c0-17.6 14.4-32 32-32h704c17.6 0 32 14.4 32 32V128.8c0.8 98.4-151.2 158.4-280 180.8z"  horiz-adv-x="1024" />

    
    <glyph glyph-name="caiwu" unicode="&#59566;" d="M512 832C264.8 832 64 631.2 64 384s200.8-448 448-448 448 200.8 448 448S759.2 832 512 832z m36-384H704v-64H544.8v-64H704v-64H544.8v-193.6h-64V256H320v64h160.8v64H320v64h157.6L332 593.6l45.6 45.6 136-136 136 136 45.6-45.6L548 448z"  horiz-adv-x="1024" />

    
    <glyph glyph-name="checkbox-weixuan" unicode="&#59573;" d="M832 704v-640H192V704h640m32 64H160c-17.6 0-32-14.4-32-32v-704c0-17.6 14.4-32 32-32h704c17.6 0 32 14.4 32 32V736c0 17.6-14.4 32-32 32z"  horiz-adv-x="1024" />

    
    <glyph glyph-name="checkbox-xuanzhong" unicode="&#59574;" d="M864 768H160c-17.6 0-32-14.4-32-32v-704c0-17.6 14.4-32 32-32h704c17.6 0 32 14.4 32 32V736c0 17.6-14.4 32-32 32zM428 177.6l-45.6-45.6-45.6 45.6-116 117.6 45.6 45.6L383.2 224l367.2 367.2 45.6-45.6-368-368z"  horiz-adv-x="1024" />

    
    <glyph glyph-name="Raidobox-weixuan" unicode="&#59575;" d="M512 768c212 0 384-172 384-384s-172-384-384-384-384 172-384 384 172 384 384 384m0 64C264.8 832 64 631.2 64 384s200.8-448 448-448 448 200.8 448 448S759.2 832 512 832z"  horiz-adv-x="1024" />

    
    <glyph glyph-name="Raidobox-xuanzhong" unicode="&#59576;" d="M512 832C264.8 832 64 631.2 64 384s200.8-448 448-448 448 200.8 448 448S759.2 832 512 832z m0-640c-106.4 0-192 85.6-192 192s85.6 192 192 192 192-85.6 192-192-85.6-192-192-192zM512 832C264.8 832 64 631.2 64 384s200.8-448 448-448 448 200.8 448 448S759.2 832 512 832z m0-640c-106.4 0-192 85.6-192 192s85.6 192 192 192 192-85.6 192-192-85.6-192-192-192z"  horiz-adv-x="1024" />

    
    <glyph glyph-name="sousuo-xianxing" unicode="&#59577;" d="M384 768c140.8 0 256-115.2 256-256S524.8 256 384 256 128 371.2 128 512s115.2 256 256 256m0 64C207.2 832 64 688.8 64 512s143.2-320 320-320 320 143.2 320 320S560.8 832 384 832z m294.4-569.6l-45.6-45.6 272-272 45.6 45.6-272 272z"  horiz-adv-x="1024" />

    
    <glyph glyph-name="shezhi" unicode="&#59578;" d="M940 300l-76 57.6c0.8 8 1.6 16.8 1.6 26.4s-0.8 18.4-1.6 26.4l76 57.6c20.8 16 26.4 44 12.8 68l-84.8 143.2c-9.6 16.8-28 27.2-47.2 27.2-6.4 0-12-0.8-18.4-3.2L712 668c-15.2 10.4-31.2 19.2-47.2 26.4l-13.6 92c-4 26.4-26.4 45.6-53.6 45.6H426.4c-27.2 0-49.6-19.2-53.6-44.8L360 694.4c-16-7.2-31.2-16-47.2-26.4l-90.4 35.2c-6.4 2.4-12.8 3.2-19.2 3.2-19.2 0-37.6-9.6-46.4-26.4L71.2 536c-13.6-22.4-8-52 12.8-68l76-57.6c-0.8-9.6-1.6-18.4-1.6-26.4s0-16.8 1.6-26.4l-76-57.6c-20.8-16-26.4-44-12.8-68l84.8-143.2c9.6-16.8 28-27.2 47.2-27.2 6.4 0 12 0.8 18.4 3.2L312 100c15.2-10.4 31.2-19.2 47.2-26.4l13.6-92c3.2-25.6 26.4-45.6 53.6-45.6h171.2c27.2 0 49.6 19.2 53.6 44.8l13.6 92.8c16 7.2 31.2 16 47.2 26.4l90.4-35.2c6.4-2.4 12.8-3.2 19.2-3.2 19.2 0 37.6 9.6 46.4 26.4l85.6 144.8c12.8 23.2 7.2 51.2-13.6 67.2zM704 384c0-105.6-86.4-192-192-192S320 278.4 320 384s86.4 192 192 192 192-86.4 192-192z"  horiz-adv-x="1024" />

    
    <glyph glyph-name="liaotianduihua" unicode="&#59580;" d="M510.4 832.8c-212 0-384-172-384-384 0-184.8 131.2-340 305.6-376l80-138.4 80 138.4C764.8 110.4 894.4 264 894.4 448c0 212.8-172 384.8-384 384.8zM319.2 384c-35.2 0-64 28.8-64 64s28.8 64 64 64 64-28.8 64-64-28.8-64-64-64zM512 384c-35.2 0-64 28.8-64 64s28.8 64 64 64 64-28.8 64-64-28.8-64-64-64z m191.2 0c-35.2 0-64 28.8-64 64s28.8 64 64 64 64-28.8 64-64-28.8-64-64-64z"  horiz-adv-x="1024" />

    
    <glyph glyph-name="dianhua" unicode="&#59581;" d="M282.4 436C344 315.2 443.2 216 564 154.4L657.6 248c11.2 11.2 28.8 15.2 43.2 10.4 48-16 100-24 152.8-24 23.2 0 42.4-19.2 42.4-42.4v-148.8c0-23.2-19.2-42.4-42.4-42.4C452.8 0 128 324.8 128 725.6c0 23.2 19.2 42.4 42.4 42.4H320c23.2 0 42.4-18.4 42.4-41.6 0-53.6 8.8-104.8 24-152.8 4.8-15.2 1.6-31.2-10.4-43.2L282.4 436z"  horiz-adv-x="1024" />

    
    <glyph glyph-name="shoucang" unicode="&#59586;" d="M519.2 88.8l255.2-133.6c12-6.4 25.6 4 23.2 16.8L748.8 256c-0.8 4.8 0.8 10.4 4.8 14.4L960 471.2c9.6 9.6 4 25.6-8.8 27.2l-284.8 41.6c-5.6 0.8-9.6 4-12 8.8l-128 257.6c-5.6 12-23.2 12-28.8 0L370.4 548c-2.4-4.8-7.2-8-12-8.8L73.6 497.6c-13.6-1.6-18.4-17.6-8.8-27.2l206.4-200.8c4-4 5.6-8.8 4.8-14.4l-48.8-284c-2.4-12.8 11.2-23.2 23.2-16.8L505.6 88c4 3.2 8.8 3.2 13.6 0.8z"  horiz-adv-x="1024" />

    
    <glyph glyph-name="shoucang-xianxing" unicode="&#59587;" d="M512 690.4L596 520c12-24 34.4-40 60-44l188.8-27.2-136-133.6c-19.2-18.4-27.2-44.8-23.2-71.2l32-188-168 89.6c-11.2 6.4-24 8.8-37.6 8.8-12.8 0-25.6-3.2-37.6-8.8l-168.8-88.8 32 188c4.8 25.6-4 52.8-23.2 71.2l-136 132.8 188.8 27.2C393.6 480 416 496 428 520L512 690.4m0 124.8c-5.6 0-11.2-3.2-14.4-8.8L370.4 548c-2.4-4.8-7.2-8-12-8.8L73.6 497.6c-13.6-1.6-18.4-17.6-8.8-27.2l206.4-200.8c4-4 5.6-8.8 4.8-14.4l-48.8-284c-1.6-10.4 6.4-18.4 16-18.4 2.4 0 4.8 0.8 7.2 1.6L505.6 88c2.4 1.6 4.8 1.6 7.2 1.6s4.8-0.8 7.2-1.6l255.2-133.6c2.4-1.6 4.8-1.6 7.2-1.6 9.6 0 17.6 8 16 18.4l-48.8 284c-0.8 4.8 0.8 10.4 4.8 14.4l206.4 200.8c9.6 9.6 4 25.6-8.8 27.2l-284.8 41.6c-5.6 0.8-9.6 4-12 8.8L526.4 806.4c-3.2 5.6-8.8 8.8-14.4 8.8z"  horiz-adv-x="1024" />

    
    <glyph glyph-name="gengduo-hengxiang" unicode="&#59588;" d="M320 384c0-35.2-28.8-64-64-64s-64 28.8-64 64 28.8 64 64 64 64-28.8 64-64z m192 64c-35.2 0-64-28.8-64-64s28.8-64 64-64 64 28.8 64 64-28.8 64-64 64z m256 0c-35.2 0-64-28.8-64-64s28.8-64 64-64 64 28.8 64 64-28.8 64-64 64z"  horiz-adv-x="1024" />

    
    <glyph glyph-name="gengduo-shuxiang" unicode="&#59589;" d="M512 192c35.2 0 64-28.8 64-64s-28.8-64-64-64-64 28.8-64 64 28.8 64 64 64z m-64 192c0-35.2 28.8-64 64-64s64 28.8 64 64-28.8 64-64 64-64-28.8-64-64z m0 256c0-35.2 28.8-64 64-64s64 28.8 64 64-28.8 64-64 64-64-28.8-64-64z"  horiz-adv-x="1024" />

    
    <glyph glyph-name="shijian-xianxing" unicode="&#59590;" d="M512 832C264.8 832 64 631.2 64 384s200.8-448 448-448 448 200.8 448 448S759.2 832 512 832z m0-832c-212 0-384 172-384 384s172 384 384 384 384-172 384-384-172-384-384-384z m32 393.6l191.2-110.4-32-55.2L488.8 352H480V640h64v-246.4z"  horiz-adv-x="1024" />

    
    <glyph glyph-name="shijian" unicode="&#59591;" d="M512 832C264.8 832 64 631.2 64 384s200.8-448 448-448 448 200.8 448 448S759.2 832 512 832z m191.2-604L488.8 352H480V640h64v-246.4l191.2-110.4-32-55.2z"  horiz-adv-x="1024" />

    
    <glyph glyph-name="yonghu" unicode="&#59592;" d="M500 767.2c-95.2-5.6-173.6-83.2-180-178.4-7.2-112 80.8-205.6 191.2-205.6 106.4 0 192 86.4 192 192 0.8 110.4-92 198.4-203.2 192zM512 320.8c-128 0-383.2-64-383.2-192v-96c0-17.6 14.4-32 32-32h702.4c17.6 0 32 14.4 32 32V129.6c0 127.2-255.2 191.2-383.2 191.2z"  horiz-adv-x="1024" />

    
    <glyph glyph-name="kaoqinchuqin" unicode="&#59600;" d="M864 704H704v64h-64v-64H384v64h-64v-64H160c-17.6 0-32-14.4-32-32v-640c0-17.6 14.4-32 32-32h704c17.6 0 32 14.4 32 32V672c0 17.6-14.4 32-32 32z m-32-640H192V512h640v-448zM403.2 188.8L320.8 271.2l45.6 45.6L448 234.4l210.4 210.4 45.6-45.6-210.4-210.4L448 144l-44.8 44.8z"  horiz-adv-x="1024" />

    
    <glyph glyph-name="paizhao" unicode="&#59601;" d="M640 320c0-70.4-57.6-128-128-128s-128 57.6-128 128 57.6 128 128 128 128-57.6 128-128z m320 224v-480c0-35.2-28.8-64-64-64H128c-35.2 0-64 28.8-64 64V544c0 35.2 28.8 64 64 64h167.2L376 704h256l80.8-96H896c35.2 0 64-28.8 64-64zM704 320c0 106.4-85.6 192-192 192S320 426.4 320 320s85.6-192 192-192 192 85.6 192 192z"  horiz-adv-x="1024" />

    
    <glyph glyph-name="paizhao-xianxing" unicode="&#59602;" d="M601.6 640l76.8-96H896v-480H128V544h201.6l76.8 96h195.2m30.4 64H376l-76.8-96H128c-35.2 0-64-28.8-64-64v-480c0-35.2 28.8-64 64-64h768c35.2 0 64 28.8 64 64V544c0 35.2-28.8 64-64 64H708.8L632 704zM512 512c-106.4 0-192-85.6-192-192s85.6-192 192-192 192 85.6 192 192-85.6 192-192 192z m0-320c-70.4 0-128 57.6-128 128s57.6 128 128 128 128-57.6 128-128-57.6-128-128-128z"  horiz-adv-x="1024" />

    
    <glyph glyph-name="xianshikejian" unicode="&#59604;" d="M512 640c-168 0-329.6-106.4-384-256 54.4-149.6 216-256 384-256 167.2 0 330.4 106.4 384.8 256-55.2 149.6-217.6 256-384.8 256z m0-416c-88 0-160 72-160 160s72 160 160 160 160-72 160-160-72-160-160-160z m96 160c0-52.8-43.2-96-96-96s-96 43.2-96 96 43.2 96 96 96 96-43.2 96-96z"  horiz-adv-x="1024" />

    
    <glyph glyph-name="suoding" unicode="&#59605;" d="M800 448H704V576c0 106.4-85.6 192-192 192S320 682.4 320 576v-128H224c-17.6 0-32-14.4-32-32v-384c0-17.6 14.4-32 32-32h576c17.6 0 32 14.4 32 32V416c0 17.6-14.4 32-32 32zM512 160c-35.2 0-64 28.8-64 64s28.8 64 64 64 64-28.8 64-64-28.8-64-64-64z m128 288H384V576c0 70.4 57.6 128 128 128s128-57.6 128-128v-128z"  horiz-adv-x="1024" />

    
    <glyph glyph-name="yincangbukejian" unicode="&#59606;" d="M253.6 216.8l109.6 109.6C356 344 352 363.2 352 384c0 88 72 160 160 160 20.8 0 40-4 57.6-11.2l82.4 82.4C607.2 631.2 560 640 512 640c-168 0-329.6-106.4-384-256 24-65.6 68.8-123.2 125.6-167.2zM416 384v-4.8L516.8 480H512c-52.8 0-96-43.2-96-96zM770.4 551.2l163.2 163.2L888 760l-753.6-753.6 45.6-45.6 192.8 192.8A390.4 390.4 0 0 1 512 128c167.2 0 330.4 106.4 384.8 256-24 65.6-69.6 123.2-126.4 167.2zM512 224c-20 0-40 4-57.6 11.2l53.6 53.6h4.8c52.8 0 96 43.2 96 96v4.8l53.6 53.6C668 424 672 404 672 384c0-88-72-160-160-160z"  horiz-adv-x="1024" />

    
    <glyph glyph-name="cuowuguanbiquxiao" unicode="&#59623;" d="M806.4 632.8l-45.6 45.6L512 428.8 263.2 678.4l-45.6-45.6L467.2 384 217.6 135.2l45.6-45.6L512 338.4l248.8-248.8 45.6 45.6L557.6 384z"  horiz-adv-x="1024" />

    
    <glyph glyph-name="wenhao-yuankuang" unicode="&#59625;" d="M512 832C264.8 832 64 631.2 64 384s200.8-448 448-448 448 200.8 448 448S759.2 832 512 832z m32-704h-64v64h64v-64z m11.2 203.2l-5.6-4.8c-3.2-2.4-5.6-8-5.6-12.8v-58.4h-64v58.4c0 24.8 11.2 48 29.6 63.2l5.6 4.8c56 44.8 83.2 68 83.2 108C598.4 537.6 560 576 512 576c-49.6 0-86.4-36.8-86.4-86.4h-64C361.6 573.6 428 640 512 640c83.2 0 150.4-67.2 150.4-150.4 0-72.8-49.6-112.8-107.2-158.4z"  horiz-adv-x="1024" />

    
    <glyph glyph-name="xinxi-yuankuang" unicode="&#59626;" d="M512 832C264.8 832 64 631.2 64 384s200.8-448 448-448 448 200.8 448 448S759.2 832 512 832z m-32-192h64v-64h-64v64z m160-512H384v64h96V437.6L400.8 416 384 477.6 511.2 512H544v-320h96v-64z"  horiz-adv-x="1024" />

    
    <glyph glyph-name="gantanhao-yuankuang" unicode="&#59628;" d="M512 832C264.8 832 64 631.2 64 384s200.8-448 448-448 448 200.8 448 448S759.2 832 512 832z m32-704h-64v64h64v-64z m-64 128V640h64v-384h-64z"  horiz-adv-x="1024" />

    
    <glyph glyph-name="shangyiyehoutuifanhui" unicode="&#59631;" d="M319.64 383.984l336.016 336.008 45.248-45.248L364.896 338.72zM365.216 429.536l339.976-339.968-45.256-45.256-339.976 339.976z"  horiz-adv-x="1024" />

    
    <glyph glyph-name="xiayiyeqianjinchakangengduo" unicode="&#59633;" d="M658.56 338.608L322.536 674.616l45.248 45.256 336.016-336.008zM704.088 383.8L364.12 43.84l-45.256 45.248 339.976 339.976z"  horiz-adv-x="1024" />

    
    <glyph glyph-name="zhixiangzuo" unicode="&#59636;" d="M896 352H250.4l242.4-242.4L448 64 173.6 338.4 128 384l45.6 45.6L448 704l45.6-45.6L250.4 416H896v-64z"  horiz-adv-x="1024" />

    
    <glyph glyph-name="weizhi" unicode="&#59647;" d="M512 832C306.4 832 140 665.6 140 460c0-101.6 40.8-194.4 107.2-261.6L512-64l264 263.2c66.4 67.2 107.2 159.2 107.2 261.6C884 665.6 717.6 832 512 832z m128-331.2c-4.8-62.4-54.4-112-116.8-116.8-75.2-6.4-138.4 53.6-138.4 127.2 0 70.4 57.6 128 128 128 73.6 0 133.6-63.2 127.2-138.4z"  horiz-adv-x="1024" />

    
    <glyph glyph-name="ditu" unicode="&#59654;" d="M357.6 64l-255.2-56c-20-4.8-39.2 10.4-39.2 31.2V326.4c0 15.2 10.4 28 24.8 31.2L243.2 392l53.6-53.6L139.2 304c-7.2-1.6-12.8-8-12.8-16v-188c0-10.4 9.6-17.6 19.2-16l192.8 42.4 12.8 3.2 12.8-2.4 306.4-60.8 210.4 47.2c7.2 1.6 12.8 8 12.8 16V316c0 10.4-9.6 17.6-19.2 16L688 289.6l-12-2.4L760 371.2l160.8 36c20 4.8 39.2-10.4 39.2-31.2v-286.4c0-15.2-10.4-28-24.8-31.2L672.8 0M512 768c-115.2 0-206.4-101.6-190.4-220 5.6-41.6 26.4-80 56-109.6l0.8-0.8L512 304.8l133.6 132.8 0.8 0.8c29.6 29.6 49.6 68 56 109.6C719.2 666.4 627.2 768 512 768m0 64c141.6 0 256-114.4 256-256 0-70.4-28-133.6-74.4-180L512 214.4 330.4 396C284.8 442.4 256 505.6 256 576 256 717.6 371.2 832 512 832z m64.8-193.6c0 35.2-28.8 64-64 64s-64-28.8-64-64 28.8-64 64-64 64 28 64 64z"  horiz-adv-x="1024" />

    
    <glyph glyph-name="siji-" unicode="&#58884;" d="M512 445.952a216.576 216.576 0 0 1 204.8 224.768A216.576 216.576 0 0 1 512 896a216.576 216.576 0 0 1-204.8-224.768 216.576 216.576 0 0 1 204.8-224.768z m-24.064-328.192l190.464 274.944A650.24 650.24 0 0 1 512 414.72a531.968 531.968 0 0 1-242.688-47.104s-15.36 0-45.568-51.2c-46.08-76.288-117.248-187.904-137.728-225.28-14.848-24.576-51.2-73.216-27.648-124.928A492.544 492.544 0 0 1 116.736-128h114.176a263.68 263.68 0 0 0 256 245.76z m450.048-25.6c-35.328 61.44-113.152 185.856-119.296 197.12s-33.792 70.656-81.92 86.016l-19.968 6.144-182.272-263.68a265.216 265.216 0 0 0 260.608-245.76h102.4s11.264 0 65.536 99.328c20.48 51.2 0 75.776-26.624 120.832z m-425.984-39.424C391.68 52.736 294.4-25.6 294.4-128h435.2c0 102.4-97.28 180.736-217.6 180.736z"  horiz-adv-x="1024" />

    
    <glyph glyph-name="order-cancel" unicode="&#58922;" d="M601.726406 351.37003500000003a31.99926 31.99926 0 0 1-45.438949 0l-45.438949-45.43895-45.43895 45.43895a31.99926 31.99926 0 0 1-45.438949-45.43895l45.438949-45.438949-45.438949-45.438949a31.99926 31.99926 0 1 1 45.438949-45.438949l45.43895 45.438949 45.438949-45.438949a31.99926 31.99926 0 0 1 45.438949 45.438949L558.207412 261.132121l45.43895 45.43895a31.99926 31.99926 0 0 1-1.919956 44.798964zM819.321374 824.959083h-127.99704L670.204823 877.437869A31.99926 31.99926 0 0 1 641.405488 895.99744H380.931512a31.99926 31.99926 0 0 1-29.439319-18.559571l-23.679453-51.838801h-127.99704A91.517884 91.517884 0 0 1 110.217772 736.00114v-773.742107A91.517884 91.517884 0 0 1 203.655611-127.97888h615.665763a91.517884 91.517884 0 0 1 93.437839 88.957942V736.00114a91.517884 91.517884 0 0 1-93.437839 88.957943zM401.411038 831.99892H622.205932l47.358905-104.317588H354.052134z m447.989641-869.739887a27.519364 27.519364 0 0 0-29.43932-24.959423H203.655611a27.519364 27.519364 0 0 0-29.439319 24.959423V736.00114a27.519364 27.519364 0 0 0 29.439319 25.599408H302.213332l-23.679452-52.478786a31.99926 31.99926 0 0 1 23.679452-45.43895h415.350395a31.99926 31.99926 0 0 1 29.43932 45.43895l-23.679453 52.478786h95.99778a27.519364 27.519364 0 0 0 29.439319-25.599408z"  horiz-adv-x="1024" />

    
    <glyph glyph-name="icon-" unicode="&#58888;" d="M928 96H96V672h832z m-768 64h704V608H160zM510.88 270.4l-308.8 245.92 39.84 50.08 268.96-214.08 268.8 214.08 40-50.08-308.8-245.92z"  horiz-adv-x="1024" />

    
    <glyph glyph-name="fapiaotianchong" unicode="&#58915;" d="M930.133333 768H93.866667a8.533333 8.533333 0 0 1-8.533334-8.533333v-315.733334a8.533333 8.533333 0 0 1 8.533334-8.533333h123.733333v-426.666667a8.533333 8.533333 0 0 1 8.533333-8.533333h25.6128c0.571733 0 1.1392 0.059733 1.6896 0.170667 0.200533 0.0384 0.379733 0.119467 0.571734 0.174933 0.3456 0.098133 0.695467 0.1792 1.028266 0.32 0.170667 0.072533 0.324267 0.1792 0.4864 0.260267 0.8192 0.4096 1.595733 0.917333 2.2528 1.5744l77.521067 77.521066a8.533333 8.533333 0 0 0 12.066133-0.004266l73.2672-73.2672a8.533333 8.533333 0 0 1 12.066134 0l73.2672 73.2672a8.533333 8.533333 0 0 0 12.066133 0l73.2672-73.2672a8.533333 8.533333 0 0 1 12.066133 0l73.2672 73.2672a8.533333 8.533333 0 0 0 12.066134 0l77.521066-77.521067a8.533333 8.533333 0 0 1 6.033067-2.500267H797.866667a8.533333 8.533333 0 0 1 8.533333 8.533334V435.2h123.733333a8.533333 8.533333 0 0 1 8.533334 8.533333V759.466667a8.533333 8.533333 0 0 1-8.533334 8.533333z m-241.4336-628.2496a8.533333 8.533333 0 0 1-12.066133 0l-73.2672-73.2672a8.533333 8.533333 0 0 0-12.066133 0l-73.2672 73.2672a8.533333 8.533333 0 0 1-12.066134 0l-73.2672-73.2672a8.533333 8.533333 0 0 0-12.066133 0l-73.2672 73.2672a8.533333 8.533333 0 0 1-12.066133 0L260.266667 64.721067V567.466667a8.533333 8.533333 0 0 1-8.533334 8.533333H192a8.533333 8.533333 0 0 0-8.533333 8.533333v25.6a8.533333 8.533333 0 0 0 8.533333 8.533334h640a8.533333 8.533333 0 0 0 8.533333-8.533334v-25.6a8.533333 8.533333 0 0 0-8.533333-8.533333h-59.733333a8.533333 8.533333 0 0 1-8.533334-8.533333v-502.749867l-75.0336 75.0336zM691.2 384H332.8a8.533333 8.533333 0 0 1-8.533333-8.533333v-25.6a8.533333 8.533333 0 0 1 8.533333-8.533334h358.4a8.533333 8.533333 0 0 1 8.533333 8.533334v25.6a8.533333 8.533333 0 0 1-8.533333 8.533333zM691.2 298.666667H332.8a8.533333 8.533333 0 0 1-8.533333-8.533334v-25.6a8.533333 8.533333 0 0 1 8.533333-8.533333h358.4a8.533333 8.533333 0 0 1 8.533333 8.533333v25.6a8.533333 8.533333 0 0 1-8.533333 8.533334zM691.2 469.333333H332.8a8.533333 8.533333 0 0 1-8.533333-8.533333v-25.6a8.533333 8.533333 0 0 1 8.533333-8.533333h358.4a8.533333 8.533333 0 0 1 8.533333 8.533333v25.6a8.533333 8.533333 0 0 1-8.533333 8.533333z"  horiz-adv-x="1024" />

    
    <glyph glyph-name="dingdan" unicode="&#58886;" d="M875.4 794.9H155c-37.9 0-73.4-30.8-73.4-68.7 0-37.9 35.5-68.7 73.4-68.7h5v-689.7l25.5 25.5h2.8l74.5 74.5 81.2-81.2 1.4 1.4 2.5-2.5 81.1 81.1 81.1-81.1 2.5 2.5 2.5-2.5 81.1 81.1 81.1-81.1 2.5 2.5 1.4-1.4 81.2 81.2 74.5-74.5h2.8l25.5-25.5V657.5h10.3c37.9 0 68.7 30.8 68.7 68.7 0 37.9-30.9 68.7-68.8 68.7z m5.9-97.6h-16.2v57.6h-39v-63.6h-0.1v-629l-62.2 62.2-1.4-1.4-1.4 1.4-81.2-81.2-81.1 81.2-2.5-2.5-2.5 2.5-81.1-81.1-81.1 81.1-2.5-2.5-2.5 2.5-81.1-81.2-81.2 81.2-1.4-1.4-1.4 1.4-62.2-62.2 0.2 692.6H160v-57.6h-14.7c-15.9 0-28.8 12.9-28.8 28.9 0 15.9 12.9 28.8 28.8 28.8h736c15.9 0 28.9-12.9 28.9-28.8-0.1-16-13-28.9-28.9-28.9zM288.6 444.8h209.3c10.3 0 18.6 8.3 18.6 18.6s-8.3 18.6-18.6 18.6H288.6c-10.3 0-18.6-8.3-18.6-18.6s8.4-18.6 18.6-18.6z m0 117.5h326.8c10.3 0 18.6 8.3 18.6 18.6s-8.3 18.6-18.6 18.6H288.6c-10.3 0-18.6-8.3-18.6-18.6s8.4-18.6 18.6-18.6zM635 364.5H288.6c-10.3 0-18.6-8.3-18.6-18.6s8.3-18.6 18.6-18.6H635c10.3 0 18.6 8.3 18.6 18.6s-8.3 18.6-18.6 18.6zM595.9 247H288.6c-10.3 0-18.6-8.3-18.6-18.6s8.3-18.6 18.6-18.6h307.2c10.3 0 18.6 8.3 18.6 18.6 0.1 10.3-8.3 18.6-18.5 18.6z"  horiz-adv-x="1024" />

    
    <glyph glyph-name="kefu" unicode="&#58896;" d="M798.758 522.29h48.743c-24.974 62.793-66.801 115.811-119.227 154.443-59.578 43.906-132.905 69.244-210.781 69.244-77.877 0-151.202-25.338-210.781-69.244-52.428-38.633-94.252-91.65-119.226-154.443h36.649c13.824 0 26.473-5.69 35.683-14.855l0.049-0.057 0.055-0.047c9.179-9.209 14.857-21.853 14.857-35.683v-261.945c0-13.838-5.69-26.472-14.857-35.684l-0.055-0.044-0.049-0.058c-9.21-9.179-21.854-14.854-35.683-14.854h-59.029c-30.113 0-57.505 12.332-77.369 32.188l-0.102 0.102c-19.852 19.864-32.188 47.255-32.188 77.363V412.625c0 30.186 12.331 57.607 32.194 77.471l0.053-0.053c12.058 12.052 26.866 21.333 43.356 26.781 26.933 82.614 78.645 152.116 145.341 201.27 68.221 50.273 152.092 79.282 241.101 79.282 89.004 0 172.881-29.008 241.102-79.282 68.225-50.279 120.78-121.851 147.162-206.96a110.937 110.937 0 0 0 29.441-21.09l0.053 0.053c19.864-19.864 32.196-47.285 32.196-77.471v-143.909c0-30.108-12.336-57.499-32.188-77.363l-0.102-0.102c-19.864-19.855-47.259-32.188-77.371-32.188h-16.381l6.668-4.748c-38.188-53.37-88.051-95.872-144.725-125-56.787-29.189-120.37-45.037-185.856-45.037l-2.038 0.004c-8.404-8.768-20.244-14.229-33.354-14.229-25.525 0-46.211 20.69-46.211 46.213s20.686 46.209 46.211 46.209c18.563 0 34.57-10.949 41.918-26.74 55.055 1.005 108.27 14.709 155.845 39.162a355.11 355.11 0 0 1 107.883 85.391c-9.464 2.136-17.972 6.958-24.673 13.63l-0.049 0.058-0.053 0.044c-9.179 9.212-14.859 21.838-14.859 35.684V471.648c0 13.83 5.681 26.473 14.859 35.683l0.053 0.047 0.049 0.057c9.214 9.179 21.839 14.855 35.686 14.855zM223.38 470.892h-58.274c-16.059 0-30.619-6.528-41.125-17.034v-0.102c-10.571-10.57-17.136-25.136-17.136-41.131v-143.909c0-16.03 6.549-30.609 17.083-41.172 10.563-10.533 25.143-17.084 41.178-17.084h58.274V470.892z m634.407 0h-58.273V210.46h58.273c16.034 0 30.617 6.551 41.18 17.084 10.533 10.563 17.08 25.142 17.08 41.172V412.625c0 15.995-6.566 30.561-17.134 41.131v0.102c-10.505 10.505-25.067 17.034-41.126 17.034z"  horiz-adv-x="1024" />

    
    <glyph glyph-name="qianbao-kuai" unicode="&#58885;" d="M735.44 342.63c11.42 0 21.77-4.63 29.3-12.08 7.45-7.53 12.08-17.88 12.08-29.3 0-11.42-4.63-21.77-12.08-29.3-7.53-7.45-17.88-12.08-29.3-12.08-22.84 0-41.38 18.54-41.38 41.38 0 11.42 4.63 21.77 12.08 29.3 7.54 7.45 17.88 12.08 29.3 12.08zM925.78 425.39H735.44c-34.26 0-65.3-13.9-87.72-36.41-22.51-22.43-36.41-53.46-36.41-87.72 0-68.52 55.61-124.13 124.13-124.13h190.34V53c0-45.68-37.07-82.76-82.76-82.76H180.97c-45.68 0-82.76 37.08-82.76 82.76V549.52c0 45.68 37.07 82.76 82.76 82.76h662.05c45.68 0 82.76-37.07 82.76-82.76v-124.13zM703.33 681.93h-344.6l192.16 105.6c40.05 22.01 90.37 7.37 112.38-32.69l40.06-72.91zM764.74 330.55c7.45-7.53 12.08-17.88 12.08-29.3 0-11.42-4.63-21.77-12.08-29.3-7.53-7.45-17.88-12.08-29.3-12.08-22.84 0-41.38 18.54-41.38 41.38 0 11.42 4.63 21.77 12.08 29.3 7.53 7.45 17.88 12.08 29.3 12.08 11.42 0 21.77-4.63 29.3-12.08zM776.82 301.25c0-11.42-4.63-21.77-12.08-29.3-7.53-7.45-17.88-12.08-29.3-12.08-22.84 0-41.38 18.54-41.38 41.38 0 11.42 4.63 21.77 12.08 29.3 7.53 7.45 17.88 12.08 29.3 12.08 11.42 0 21.77-4.63 29.3-12.08 7.45-7.53 12.08-17.88 12.08-29.3z"  horiz-adv-x="1024" />

    
    <glyph glyph-name="xiaoxi" unicode="&#58898;" d="M512.5 813.3c-248.2 0-448-174.8-448-390.3 0-132.7 76.5-249.8 192-321.6v-120.2c0-15.6 10.9-26.5 25-26.5 4.7 0 9.4 1.6 12.5 3.1L415.7 39c31.2-6.2 62.4-7.8 95.2-7.8C759.2 31.200000000000045 959 206 959 421.5c1.5 217-199.8 391.8-446.5 391.8zM311.1 359c-29.7 0-53.1 25-53.1 53.1 0 29.7 25 53.1 53.1 53.1 29.7 0 53.1-25 53.1-53.1 1.5-28.1-23.4-53.1-53.1-53.1z m204.5 0c-29.7 0-53.1 25-53.1 53.1 0 29.7 25 53.1 53.1 53.1 29.7 0 53.1-25 53.1-53.1s-25-53.1-53.1-53.1z m196.7 0c-29.7 0-53.1 25-53.1 53.1 0 29.7 25 53.1 53.1 53.1 29.7 0 53.1-25 53.1-53.1S742 359 712.3 359z m0 0"  horiz-adv-x="1024" />

    
    <glyph glyph-name="renzheng" unicode="&#59046;" d="M746.666667 840.533333H285.866667L46.933333 516.266667l473.6-584.533334L977.066667 512l-230.4 328.533333z m-8.533334-332.8l-196.266666-285.866666c-4.266667-8.533333-17.066667-12.8-29.866667-12.8-12.8 0-21.333333 4.266667-29.866667 12.8L285.866667 503.466667c-12.8 17.066667-8.533333 38.4 8.533333 46.933333 17.066667 12.8 38.4 8.533333 46.933333-8.533333l174.933334-243.2L682.666667 546.133333c8.533333 17.066667 29.866667 21.333333 46.933333 8.533334 17.066667-8.533333 21.333333-29.866667 8.533333-46.933334z"  horiz-adv-x="1024" />

    
    <glyph glyph-name="renzheng1" unicode="&#59295;" d="M512.01228-62.708971a68.711941 68.711941 0 0 0-39.749306 12.634761L296.450782 74.51025c-105.238856 82.570577-162.446789 199.335954-162.446789 329.760422V640.780271a34.362622 34.362622 0 0 0 19.640316 31.05018L473.621924 823.546851a33.730219 33.730219 0 0 0 3.691066 1.493004c22.316262 7.559163 46.930869 7.559163 69.24713 0 1.258667-0.419556 2.499937-0.923022 3.691066-1.493004L870.346481 671.830451a34.360576 34.360576 0 0 0 19.648502-31.05018v-236.509599c0-130.440841-57.217143-247.189845-161.096024-328.753489L551.72884-50.07421c-11.863189-8.423857-25.789363-12.634762-39.71656-12.634761zM202.731284 619.043201v-214.772529c0-108.87978 47.879474-206.433606 134.811382-274.691199L511.994883 6.000923l175.811168 124.58446c85.590354 67.234287 133.460618 164.788114 133.460618 273.684266V619.043201L522.902304 760.457977c-7.131421 2.072195-14.832823 2.055822-21.930475 0L202.731284 619.043201zM448.986851 259.293767L306.546721 418.599006l64.045665 57.267285 105.708554-118.225635 199.487404 204.051349 61.428047-60.052724-238.042511-243.465011c-13.901615-14.217816-36.933167-13.70514-50.187029 1.119497z"  horiz-adv-x="1024" />

    
    <glyph glyph-name="xiaoxi-chenggong" unicode="&#59163;" d="M512 832C264.5 832 64 631.4 64 384s200.6-448 448-448 448 200.6 448 448S759.4 832 512 832z m-41.3-705.4L256.4 319.4l63.5 64.2 127.6-99c162 220.1 303.8 290.8 303.8 290.8l17.7-26.7C597.5 415.3 470.6 126.6 470.7 126.6z"  horiz-adv-x="1024" />

    
    <glyph glyph-name="huoche" unicode="&#59120;" d="M55.3 301.3V45c0-11 9-20 20-20h3.1c10 0 18.3 7.4 19.8 17.2 8.3 55.3 56.1 97.8 113.7 97.8s105.4-42.4 113.7-97.8c1.5-9.9 9.8-17.2 19.8-17.2H386c11 0 20 9 20 20V489c0 11-9 20-20 20H280c-33.1 0-64.8-13.7-87.5-37.9L71.6 342.3c-10.5-11.1-16.3-25.8-16.3-41zM336 418v-144c0-11-9-20-20-20H145.3c-11 0-20 9-20 20v13.6c0 10.5 4.2 20.7 11.6 28.1l85.9 86.7c22.5 22.8 53.2 35.6 85.3 35.6h7.9c11 0 20-8.9 20-20zM467.3 639v-574c0-22.1 17.9-40 40-40h175.1c10 0 18.3 7.4 19.8 17.2 8.3 55.3 56.1 97.8 113.7 97.8 63.5 0 115-51.5 115-115 20.4 0 37 16.6 37 37V639c0 22.1-17.9 40-40 40H507.3c-22.1 0-40-17.9-40-40zM213.5 99c-45.4 0.8-82.3-36.1-81.5-81.5 0.8-42.8 35.7-77.7 78.5-78.5 45.4-0.8 82.3 36.1 81.5 81.5-0.8 42.8-35.7 77.7-78.5 78.5zM817.5 99c-45.4 0.8-82.3-36.1-81.5-81.5 0.8-42.8 35.7-77.7 78.5-78.5 45.4-0.8 82.3 36.1 81.5 81.5-0.8 42.8-35.7 77.7-78.5 78.5z"  horiz-adv-x="1024" />

    
    <glyph glyph-name="daohang1" unicode="&#58932;" d="M512 874C241.38 874 22 654.62 22 384s219.38-490 490-490 490 219.38 490 490S782.62 874 512 874z m226.06-277.73L517.54 86.86c-3.18-7.28-13.72-7.08-17.21 0.41L410.4 279.43a5.966 5.966 0 0 1-2.97 2.97L215.6 372.42c-7.58 3.49-7.79 14.05-0.41 17.23l508.74 220.76c8.91 3.91 18.03-5.22 14.13-14.14z"  horiz-adv-x="1024" />

    
    <glyph glyph-name="dingdan1" unicode="&#58897;" d="M347.136 462.848m-30.72 0a30.72 30.72 0 1 1 61.44 0 30.72 30.72 0 1 1-61.44 0ZM645.12 271.36H378.88c-5.12 0-9.216-4.096-9.216-9.216s4.096-9.216 9.216-9.216h266.24c5.12 0 9.216 4.096 9.216 9.216s-4.096 9.216-9.216 9.216zM512 462.848m-30.72 0a30.72 30.72 0 1 1 61.44 0 30.72 30.72 0 1 1-61.44 0ZM676.864 462.848m-30.72 0a30.72 30.72 0 1 1 61.44 0 30.72 30.72 0 1 1-61.44 0ZM512 896C229.376 896 0 666.624 0 384s229.376-512 512-512 512 229.376 512 512S794.624 896 512 896z m281.6-558.08C793.6 239.616 712.704 158.72 614.4 158.72H248.832c-10.24 0-18.432 8.192-18.432 18.432V430.08C230.4 528.384 311.296 609.28 409.6 609.28h364.544c10.24 0 18.432-8.192 18.432-18.432v-252.928zM701.44 353.28h-378.88c-5.12 0-9.216-4.096-9.216-9.216s4.096-9.216 9.216-9.216h377.856c5.12 0 9.216 4.096 9.216 9.216 1.024 5.12-3.072 9.216-8.192 9.216z"  horiz-adv-x="1024" />

    
    <glyph glyph-name="xiaoxi-xianxing" unicode="&#58934;" d="M512.17 0.13999999999998636h-0.22c-9.66 0.07-18.78 4.5-24.8 12.06l-92.28 115.79H160.09c-17.67 0-32 14.33-32 32V672.13c0 17.67 14.33 32 32 32h704.47c17.67 0 32-14.33 32-32v-512.14c0-17.67-14.33-32-32-32H632.12l-95.2-116.14a32.03 32.03 0 0 0-24.75-11.71zM192.09 191.99h218.19c9.74 0 18.95-4.44 25.02-12.06l77.22-96.89 79.7 97.23a31.983 31.983 0 0 0 24.75 11.71h215.59V640.13H192.09v-448.14zM312.25 391.59m-56.2 0a56.2 56.2 0 1 1 112.4 0 56.2 56.2 0 1 1-112.4 0ZM512 391.59m-56.2 0a56.2 56.2 0 1 1 112.4 0 56.2 56.2 0 1 1-112.4 0ZM711.95 391.59m-56.2 0a56.2 56.2 0 1 1 112.4 0 56.2 56.2 0 1 1-112.4 0Z"  horiz-adv-x="1024" />

    
    <glyph glyph-name="ico-rkrwd" unicode="&#58992;" d="M805.3 708c17.2 0 33.5-6.8 45.8-19.1 12.3-12.3 19.1-28.6 19.1-45.8v-518.3c0-17.2-6.8-33.5-19.1-45.8-12.3-12.3-28.6-19.1-45.8-19.1H222.9c-17.2 0-33.5 6.8-45.8 19.1-12.3 12.3-19.1 28.6-19.1 45.8V643.1c0 17.2 6.8 33.5 19.1 45.8 12.3 12.3 28.6 19.1 45.8 19.1h582.4m0 60H222.9C154.2 768 98 711.8 98 643.1v-518.3c0-68.7 56.2-124.9 124.9-124.9h582.4c68.7 0 124.9 56.2 124.9 124.9V643.1c0 68.7-56.2 124.9-124.9 124.9zM445.6 613.9c-12.6 0-18.7-5.3-20.2-6.9L330 533.8l-58.8 39.3c-4.9 3.3-10.6 5-16.4 5-9.9 0-19.2-4.9-24.7-13.2-9-13.6-5.4-32.1 8.2-41.2l76.8-51.4c4.9-3.3 10.4-4.9 16-4.9 5.3 0 10.6 1.5 15.4 4.3l0.4-0.5 118.8 94.4 0.1 0.1c0.7 0.6 7.2 6.7 7.2 20.6 0 15.3-12.3 27.6-27.4 27.6zM349.1 321.5c27.7 0 50.3-22.5 50.3-50.3S376.8 221 349.1 221c-27.7 0-50.3 22.5-50.3 50.3s22.6 50.2 50.3 50.2m0 60c-60.8 0-110.3-49.5-110.3-110.3s49.5-110.3 110.3-110.3 110.3 49.5 110.3 110.3c-0.1 60.9-49.5 110.3-110.3 110.3zM761 572.1H551c-16.5 0-30-13.5-30-30s13.5-30 30-30h210c16.5 0 30 13.5 30 30s-13.5 30-30 30zM761 288.3H551c-16.5 0-30-13.5-30-30s13.5-30 30-30h210c16.5 0 30 13.5 30 30s-13.5 30-30 30z"  horiz-adv-x="1024" />

    
    <glyph glyph-name="rili" unicode="&#59513;" d="M768 844.8V896h-102.4v-51.2H358.4V896H256v-51.2H0v-972.8h1024V844.8z m-166.4-819.2h-102.4v307.2h-76.8V435.2h179.2zM102.4 588.8V742.4h153.6v-51.2h102.4V742.4h307.2v-51.2h102.4V742.4h153.6v-153.6z"  horiz-adv-x="1024" />

    
    <glyph glyph-name="icon_daohang-copy" unicode="&#58916;" d="M512 896C228.571429 896 0 667.428571 0 384s228.571429-512 512-512 512 228.571429 512 512S795.428571 896 512 896z m67.657143-581.485714v98.742857h-138.971429c-58.514286 0-106.057143-45.714286-106.057143-104.228572v-164.571428H201.142857V343.771429c0 107.885714 89.6 195.657143 199.314286 195.657142h179.2V621.714286L822.857143 457.142857l-243.2-142.628571z"  horiz-adv-x="1024" />

    
    <glyph glyph-name="xinbaniconshangchuan-" unicode="&#58945;" d="M667.733333 12.8c-17.066667 0-32 14.933333-32 32 0 49.066667-44.8 89.6-100.266666 89.6h-8.533334c-55.466667 0-100.266667-40.533333-100.266666-89.6 0-17.066667-14.933333-32-32-32s-32 14.933333-32 32c0 85.333333 74.666667 153.6 164.266666 153.6h6.4c91.733333 0 164.266667-68.266667 164.266667-153.6 2.133333-17.066667-12.8-32-29.866667-32zM529.066667 134.4c-187.733333 0-341.333333 153.6-341.333334 341.333333s153.6 341.333333 341.333334 341.333334 341.333333-153.6 341.333333-341.333334-153.6-341.333333-341.333333-341.333333z m0 618.666667c-153.6 0-277.333333-123.733333-277.333334-277.333334s123.733333-277.333333 277.333334-277.333333 277.333333 123.733333 277.333333 277.333333-123.733333 277.333333-277.333333 277.333334zM593.066667 326.4h-128c-17.066667 0-32 14.933333-32 32s14.933333 32 32 32h128c17.066667 0 32-14.933333 32-32s-14.933333-32-32-32z"  horiz-adv-x="1024" />

    
    <glyph glyph-name="shaixuan1" unicode="&#58900;" d="M580.581 371.377c0 20.128 5.844 39.823 16.823 56.698L780.16 708.976H242.612l177.76-281.898a103.964 103.964 0 0 0 16.027-55.454v-174.438l144.182-88.03V371.377zM170.045 781H853.96c17.695 0 32.04-14.332 32.04-32.01a31.99 31.99 0 0 0-5.176-17.446L657.848 388.823a31.99 31.99 0 0 1-5.176-17.446v-376.374c0-4.42-3.586-8.003-8.01-8.003a8.016 8.016 0 0 0-4.177 1.174l-268.51 163.937a16.002 16.002 0 0 0-7.667 13.657V371.624c0 6.038-1.71 11.954-4.93 17.063l-216.443 343.24c-9.432 14.958-4.941 34.723 10.03 44.146a32.062 32.062 0 0 0 17.08 4.927z m470.612-192.064c-22.12 0-40.05 17.915-40.05 40.013 0 22.1 17.93 40.014 40.05 40.014 22.119 0 40.05-17.915 40.05-40.014 0-22.098-17.931-40.013-40.05-40.013z"  horiz-adv-x="1024" />

    
    <glyph glyph-name="huoche1" unicode="&#58926;" d="M357.4 120.6c0-47.2-38.2-85.4-85.4-85.4s-85.4 38.2-85.4 85.4S224.8 206 272 206c47.2-0.1 85.4-38.3 85.4-85.4z m516.8 0c0-47.2-38.2-85.4-85.4-85.4s-85.4 38.2-85.4 85.4 38.2 85.4 85.4 85.4c47.2-0.1 85.4-38.3 85.4-85.4z m89.4 314.5l-82.5 110c-16.9 20.3-28.3 36.9-55.4 36.9h-166c-20.3 0-36.9-16.6-36.9-36.9V176c0-20.3 16.5-36.7 36.7-36.9 9.1 63.6 63.4 112.8 129.4 112.8 66.1 0 120.4-49.2 129.4-112.8H955c20.3 0 36.9 16.6 36.9 36.9V360.5c0 35-28.3 74.6-28.3 74.6z m-230.1-74.6V508.2h90.3c6 0 14.2-8.7 14.2-8.7l77.7-107.6c6.9-10.1 14.3-22.1 14.3-31.4H733.5zM548.9 729.7H69c-20.3 0-36.9-16.6-36.9-36.9V176c0-20.3 16.6-36.9 36.9-36.9h73.6c9 63.6 63.3 112.8 129.4 112.8 66.1 0 120.4-49.2 129.4-112.8h147.4c20.3 0 36.9 16.6 36.9 36.9V692.7c0.1 20.4-16.5 37-36.8 37z"  horiz-adv-x="1024" />

    


  </font>
</defs>
</svg>
